<?xml version="1.0" encoding="UTF-8"?>
<svg xmlns="http://www.w3.org/2000/svg">
	<rect x="10" y="20" height="50" width="75"
			  stroke="rgb(0,255,0)" fill="rgb(0,255,0)"/>
	<polygon fill="rgb(153, 204, 255)" fill-opacity="0.5" stroke-width="10" stroke="rgb(255, 0, 102)" stroke-opacity="0.7" points="850,75 958,137 958,262 850,325 742,262 742,137" />

	<g transform="translate(100, 100) rotate(45)">
		<line x1="10" y1="10" x2="85" y2="10" stroke="rgb(255,0,0)"/>
		<rect x="10" y="20" height="50" width="75"
			  stroke="rgb(0,255,0)" fill="rgb(0,255,0)"/>
		<g transform="translate(100, 100) rotate(46)">

			<polygon fill="rgb(153, 204, 255)" fill-opacity="0.5" stroke-width="10" stroke="rgb(255, 0, 102)" stroke-opacity="0.7" points="850,75 958,137 958,262 850,325 742,262 742,137" />
			<polygon fill="rgb(255, 255, 0)" fill-opacity="0.6" stroke-width="10" stroke="rgb(255, 0, 0)" stroke-opacity="0.7" points="350,75 379,161 469,161 397,215 423,301 350,250 277,301 303,215 231,161 321,161	" />
			<g transform="translate(100, 100) rotate(47)">
				<circle cx="200" cy="300" r="100" fill="rgb(255, 255, 0)" stroke="rgb(0, 255, 255)" stroke-width="10" stroke-opacity="0.7" fill-opacity="0.5" />
				<ellipse cx="500" cy="100" rx="100" ry="50" stroke="rgb(255, 255, 0)" stroke-width="3" fill="rgb(0, 255, 0)" stroke-opacity="0.7" fill-opacity="0.5" />
			</g>
		</g>
		<g transform="translate(100, 100) rotate(48)">
			<line x1="70" y1="30" x2="90" y2="10" stroke="rgb(0, 0, 255)" stroke-width="20" stroke-opacity="0.9" />
			<line x1="90" y1="30" x2="110" y2="10" stroke="rgb(0, 0, 255)" stroke-width="25" stroke-opacity="1.0" />
		</g>
		<text x="10" y="120" stroke="rgb(255,0,0)" fill="rgb(0,0,255)" font-size ="50">
			Text grouped with shapes
		</text>
	</g>

</svg>
